<svg width="82" height="116" viewBox="0 0 82 116" fill="none" xmlns="http://www.w3.org/2000/svg">
<path d="M41 55.125C37.1875 55.125 33.5312 53.6105 30.8353 50.9147C28.1395 48.2188 26.625 44.5625 26.625 40.75C26.625 36.9375 28.1395 33.2812 30.8353 30.5853C33.5312 27.8895 37.1875 26.375 41 26.375C44.8125 26.375 48.4688 27.8895 51.1647 30.5853C53.8605 33.2812 55.375 36.9375 55.375 40.75C55.375 42.6378 55.0032 44.507 54.2808 46.2511C53.5584 47.9951 52.4995 49.5798 51.1647 50.9147C49.8298 52.2495 48.2451 53.3084 46.5011 54.0308C44.757 54.7532 42.8878 55.125 41 55.125ZM41 0.5C30.325 0.5 20.0873 4.74061 12.539 12.289C4.99061 19.8373 0.75 30.075 0.75 40.75C0.75 70.9375 41 115.5 41 115.5C41 115.5 81.25 70.9375 81.25 40.75C81.25 30.075 77.0094 19.8373 69.461 12.289C61.9127 4.74061 51.675 0.5 41 0.5Z"  fill="#ee0000"/>
</svg>
