<svg width="98" height="28" viewBox="0 0 98 28" fill="none" xmlns="http://www.w3.org/2000/svg">
<path d="M19.1731 27.0001C23.0722 27.0001 26.233 23.8211 26.233 19.8995C26.233 15.9779 23.0722 12.7988 19.1731 12.7988C15.2741 12.7988 12.1133 15.9779 12.1133 19.8995C12.1133 23.8211 15.2741 27.0001 19.1731 27.0001Z" fill="#97CF26"/>
<path d="M5.90194 23.2046C7.71687 23.2046 9.18816 21.7249 9.18816 19.8994C9.18816 18.074 7.71687 16.5942 5.90194 16.5942C4.08701 16.5942 2.61572 18.074 2.61572 19.8994C2.61572 21.7249 4.08701 23.2046 5.90194 23.2046Z" fill="#A169F7"/>
<path d="M19.173 11.1222C21.6826 11.1222 23.7171 9.07593 23.7171 6.5518C23.7171 4.02766 21.6826 1.98145 19.173 1.98145C16.6634 1.98145 14.6289 4.02766 14.6289 6.5518C14.6289 9.07593 16.6634 11.1222 19.173 11.1222Z" fill="#FF6163"/>
<path d="M5.90208 12.3873C9.10643 12.3873 11.7041 9.77467 11.7041 6.55181C11.7041 3.32895 9.10643 0.716309 5.90208 0.716309C2.69773 0.716309 0.100098 3.32895 0.100098 6.55181C0.100098 9.77467 2.69773 12.3873 5.90208 12.3873Z" fill="#00AAFF"/>
<path d="M44.5867 23.1652H48.2515L41.4643 4.57764H38.8061L32.0176 23.1658H35.6827L36.979 19.6177H43.2904L44.5867 23.1658L37.9998 16.8205L40.135 10.9755L42.269 16.8205H37.9998L44.5867 23.1652ZM57.3366 10.4751L53.9639 19.7088L50.5927 10.4751H47.1493L51.7852 23.1652H56.1431L60.7784 10.4751H57.3359M62.2197 10.4751H65.6631V23.1652H62.2197V10.4751Z" fill="white"/>
<path d="M63.9538 9.03485C65.1783 9.03485 66.1709 8.03652 66.1709 6.80502C66.1709 5.57352 65.1783 4.5752 63.9538 4.5752C62.7294 4.5752 61.7368 5.57352 61.7368 6.80502C61.7368 8.03652 62.7294 9.03485 63.9538 9.03485Z" fill="white"/>
<path d="M77.8212 13.2724V10.4758H73.6963V6.9751H70.2551V10.4758H67.5317V13.2724H70.2551V18.7321C70.2551 21.5484 71.6551 23.4281 75.23 23.4281C76.6105 23.4281 77.8212 22.9182 77.8212 22.9182L77.403 20.1782C77.403 20.1782 76.7253 20.3819 75.8919 20.3819C74.8705 20.3819 73.6963 19.9391 73.6963 18.519V13.2721L77.8212 13.2724ZM85.7176 20.2652C83.7977 20.2652 82.2421 18.7343 82.2421 16.8461C82.2421 14.9595 83.7977 13.4283 85.7169 13.4283C87.6374 13.4283 89.1925 14.9598 89.1925 16.8464C89.1925 18.7347 87.6374 20.2652 85.7176 20.2652ZM85.7176 10.1519C81.9854 10.1519 78.9587 13.1297 78.9587 16.8002C78.9587 20.4723 81.9854 23.4486 85.7173 23.4486C89.4475 23.4486 92.4743 20.4723 92.4743 16.8002C92.4743 13.1297 89.4481 10.1519 85.7176 10.1519Z" fill="white"/>
</svg>
