<svg width="29" height="24" viewBox="0 0 29 24" fill="none" xmlns="http://www.w3.org/2000/svg">
<path fill-rule="evenodd" clip-rule="evenodd" d="M28.1155 12.0001C28.1155 12.4311 27.9346 12.8444 27.6128 13.1491C27.2909 13.4539 26.8543 13.6251 26.3991 13.6251L6.51354 13.6251L13.8835 20.5996C14.0431 20.7507 14.1697 20.93 14.2561 21.1275C14.3424 21.3249 14.3869 21.5364 14.3869 21.7501C14.3869 21.9638 14.3424 22.1753 14.2561 22.3727C14.1697 22.5701 14.0431 22.7495 13.8835 22.9006C13.724 23.0517 13.5345 23.1715 13.326 23.2533C13.1175 23.3351 12.894 23.3772 12.6684 23.3772C12.4427 23.3772 12.2192 23.3351 12.0107 23.2533C11.8022 23.1715 11.6128 23.0517 11.4532 22.9006L1.15511 13.1506C0.995273 12.9997 0.868461 12.8203 0.781934 12.6229C0.695409 12.4255 0.650871 12.2138 0.650871 12.0001C0.650871 11.7864 0.695409 11.5747 0.781934 11.3773C0.868461 11.1799 0.995273 11.0005 1.15511 10.8496L11.4532 1.0996C11.6128 0.948513 11.8022 0.828665 12.0107 0.746898C12.2192 0.665131 12.4427 0.623046 12.6684 0.623046C12.894 0.623046 13.1175 0.665131 13.326 0.746898C13.5345 0.828665 13.724 0.948514 13.8835 1.0996C14.2058 1.40473 14.3869 1.81858 14.3869 2.2501C14.3869 2.46377 14.3424 2.67534 14.2561 2.87275C14.1697 3.07015 14.0431 3.24951 13.8835 3.4006L6.51354 10.3751L26.3991 10.3751C26.8543 10.3751 27.2909 10.5463 27.6128 10.8511C27.9346 11.1558 28.1155 11.5691 28.1155 12.0001Z" fill="#808080"/>
</svg>
