<svg width="28" height="28" viewBox="0 0 28 28" fill="none" xmlns="http://www.w3.org/2000/svg">
<path d="M20.3423 27.8158C24.5009 27.8158 27.8721 24.4514 27.8721 20.3012C27.8721 16.151 24.5009 12.7866 20.3423 12.7866C16.1837 12.7866 12.8125 16.151 12.8125 20.3012C12.8125 24.4514 16.1837 27.8158 20.3423 27.8158Z" fill="#97CF26"/>
<path d="M6.18807 23.799C8.12382 23.799 9.69304 22.2329 9.69304 20.3011C9.69304 18.3693 8.12382 16.8032 6.18807 16.8032C4.25233 16.8032 2.68311 18.3693 2.68311 20.3011C2.68311 22.2329 4.25233 23.799 6.18807 23.799Z" fill="#A169F7"/>
<path d="M20.3422 11.0125C23.0189 11.0125 25.1888 8.84695 25.1888 6.17566C25.1888 3.50438 23.0189 1.33887 20.3422 1.33887C17.6655 1.33887 15.4956 3.50438 15.4956 6.17566C15.4956 8.84695 17.6655 11.0125 20.3422 11.0125Z" fill="#FF6163"/>
<path d="M6.1882 12.3514C9.60585 12.3514 12.3764 9.58645 12.3764 6.1757C12.3764 2.76496 9.60585 0 6.1882 0C2.77055 0 0 2.76496 0 6.1757C0 9.58645 2.77055 12.3514 6.1882 12.3514Z" fill="#00AAFF"/>
</svg>
