<svg width="27" height="23" viewBox="1 0 27 23" fill="none" xmlns="http://www.w3.org/2000/svg">
<path fill-rule="evenodd" clip-rule="evenodd" d="M0.346435 11.9999C0.346435 11.5689 0.527264 11.1556 0.849141 10.8509C1.17102 10.5461 1.60758 10.3749 2.06278 10.3749L21.9484 10.3749L14.5784 3.4004C14.4188 3.24931 14.2922 3.06995 14.2059 2.87255C14.1195 2.67514 14.075 2.46357 14.075 2.2499C14.075 2.03623 14.1195 1.82465 14.2059 1.62725C14.2922 1.42985 14.4188 1.25048 14.5784 1.0994C14.738 0.948312 14.9274 0.828466 15.1359 0.746698C15.3444 0.664932 15.5679 0.622848 15.7936 0.622848C16.0192 0.622848 16.2427 0.664932 16.4512 0.746698C16.6597 0.828466 16.8491 0.948312 17.0087 1.0994L27.3068 10.8494C27.4666 11.0003 27.5935 11.1797 27.68 11.3771C27.7665 11.5745 27.811 11.7862 27.811 11.9999C27.811 12.2136 27.7665 12.4253 27.68 12.6227C27.5935 12.8201 27.4666 12.9995 27.3068 13.1504L17.0087 22.9004C16.8491 23.0515 16.6597 23.1713 16.4512 23.2531C16.2427 23.3349 16.0192 23.377 15.7936 23.377C15.5679 23.377 15.3444 23.3349 15.1359 23.2531C14.9274 23.1713 14.738 23.0515 14.5784 22.9004C14.2561 22.5953 14.075 22.1814 14.075 21.7499C14.075 21.5362 14.1195 21.3247 14.2059 21.1273C14.2922 20.9298 14.4188 20.7505 14.5784 20.5994L21.9484 13.6249L2.06278 13.6249C1.60758 13.6249 1.17102 13.4537 0.849142 13.1489C0.527264 12.8442 0.346435 12.4309 0.346435 11.9999Z" fill="#808080"/>
</svg>
